Coordinates
version=1
nRows=9
nColumns=36
inDegrees=yes

Units are S.I. units (second, meters, Newtons, ...)
If the header above contains a line with 'inDegrees', this indicates whether rotational values are in degrees (yes) or radians (no).

endheader
time	pelvis_tilt	pelvis_list	pelvis_rotation	pelvis_tx	pelvis_ty	pelvis_tz	hip_flexion_r	hip_adduction_r	hip_rotation_r	knee_angle_r	knee_angle_r_beta	ankle_angle_r	subtalar_angle_r	mtp_angle_r	hip_flexion_l	hip_adduction_l	hip_rotation_l	knee_angle_l	knee_angle_l_beta	ankle_angle_l	subtalar_angle_l	mtp_angle_l	lumbar_extension	lumbar_bending	lumbar_rotation	arm_flex_r	arm_add_r	arm_rot_r	elbow_flex_r	pro_sup_r	arm_flex_l	arm_add_l	arm_rot_l	elbow_flex_l	pro_sup_l
      6.28000000	    -23.34657217	     -5.98797216	      3.06032087	     -0.36106184	      0.69244011	     -0.48881588	     78.15830176	     11.47304007	      0.41617090	     75.46139202	      1.31704975	     22.53381633	    -25.51335434	     -7.49999987	     82.00541423	    -27.55457675	      6.50234329	     65.80788563	      1.14856428	     13.20219993	     14.21655633	     -7.49999987	    -34.00162682	     12.12934035	      2.06664562	     71.85049822	    -19.35420296	     10.83376273	    121.32990333	     93.13713638	     70.51030377	     -5.99493333	      8.62224026	    100.29694237	     97.65647092
      6.29000000	    -23.30367734	     -6.07730532	      3.00664360	     -0.35975761	      0.69491402	     -0.48881706	     77.66666247	     11.50189369	      0.32096801	     74.90951493	      1.30741768	     22.49009787	    -25.42585873	     -7.49999987	     81.55140663	    -27.68685397	      6.35644314	     65.34390914	      1.14046636	     13.19043114	     14.28224747	     -7.49999987	    -33.55173192	     12.25913545	      2.01811735	     71.09738659	    -19.37935311	     10.76136848	    121.38710651	     93.21575601	     69.95615416	     -6.20336745	      8.78490614	    100.35793713	     97.72641332
      6.30000000	    -23.25251958	     -6.10044494	      2.96606526	     -0.35836979	      0.69749011	     -0.48890735	     77.14836952	     11.50412388	      0.30323007	     74.36559855	      1.29792454	     22.45156518	    -25.35059412	     -7.49999987	     81.03249306	    -27.78619263	      6.13627999	     64.88560842	      1.13246750	     13.17046654	     14.33903061	     -7.49999987	    -33.08047600	     12.34354690	      1.91230929	     70.27060799	    -19.38008833	     10.66918745	    121.44290847	     93.29314871	     69.36195723	     -6.35378835	      8.89900172	    100.41733999	     97.79472628
      6.31000000	    -23.14967572	     -6.10766343	      2.92185992	     -0.35688096	      0.70026221	     -0.48892988	     76.56371084	     11.52952065	      0.31037715	     73.80456585	      1.28813268	     22.40307208	    -25.27699716	     -7.49999987	     80.43233019	    -27.89272707	      5.90125655	     64.41566948	      1.12426552	     13.13025195	     14.38883451	     -7.49999987	    -32.63982625	     12.40485745	      1.81846190	     69.38199569	    -19.33076535	     10.55042754	    121.48906746	     93.36449828	     68.72917659	     -6.48137110	      8.98680396	    100.47779406	     97.86121326
      6.32000000	    -22.98680123	     -5.82074487	      2.79605776	     -0.35529507	      0.70345037	     -0.48853979	     75.85756425	     11.59464792	      0.68500089	     73.23151703	      1.27813109	     22.26116782	    -25.34659021	     -7.49999987	     79.44030176	    -28.00844816	      5.27281289	     63.76951768	      1.11298805	     13.02897589	     14.53486707	     -7.49999987	    -32.30362508	     11.99099455	      1.66340222	     68.23781874	    -19.08103404	      9.68988553	    121.55260935	     94.30093035	     68.25608714	     -6.70393683	      9.32422921	    100.51507192	     98.61676372
      6.33000000	    -22.86953683	     -5.85704259	      2.77959895	     -0.35351977	      0.70631873	     -0.48866334	     75.21024691	     11.56756010	      0.59637093	     72.64979498	      1.26797812	     22.18538160	    -25.25208484	     -7.49999987	     78.86701770	    -28.04711039	      5.12636096	     63.40348170	      1.10659951	     12.99003314	     14.53393655	     -7.49999987	    -31.78838444	     12.12706307	      1.59030470	     67.24192835	    -19.25087740	      9.78352835	    121.59251170	     94.35711060	     67.41401282	     -6.87392862	      9.35491119	    100.60624931	     98.67183465
      6.34000000	    -22.86039965	     -5.63896652	      2.65602826	     -0.35174379	      0.70946735	     -0.48852241	     74.60453863	     11.57982343	      0.87980062	     71.97675762	      1.25623141	     22.10478780	    -25.22266427	     -7.49999987	     78.03662712	    -28.08725149	      4.60652605	     62.71480238	      1.09457979	     12.81493073	     14.44287575	     -7.49999987	    -31.24427671	     11.89017920	      1.37094619	     66.07581434	    -19.18628712	      9.53472716	    121.71820131	     94.67643154	     66.57555440	     -7.02538470	      9.23255256	    101.09708251	     99.01660677
      6.35000000	    -22.75005086	     -5.64520678	      2.60336000	     -0.34993999	      0.71260374	     -0.48864613	     73.93627968	     11.58462205	      0.87213450	     71.31750098	      1.24472521	     21.99835282	    -25.12503329	     -7.49999987	     77.34882281	    -28.10249777	      4.45198205	     62.20021495	      1.08559855	     12.79241123	     14.40755656	     -7.49999987	    -30.71008811	     11.96672231	      1.29194700	     64.99132371	    -19.29467135	      9.56476956	    121.74063120	     94.77547994	     65.67338371	     -7.14034213	      9.25439184	    101.23058499	     99.12298861
      6.36000000	    -22.54808349	     -5.63803470	      2.56162752	     -0.34814381	      0.71563443	     -0.48888711	     73.21867551	     11.55781084	      0.84741160	     70.77923532	      1.23533070	     21.88953466	    -25.03239733	     -7.49999987	     76.64325666	    -28.07920016	      4.36139391	     61.85980670	      1.07965730	     12.76309863	     14.37865082	     -7.49999987	    -30.19264485	     12.07475264	      1.23517975	     63.93935006	    -19.42488253	      9.60340066	    121.78668256	     94.82159707	     64.64301450	     -7.30366304	      9.30599096	    101.28902467	     99.17225119
